<?xml version="1.0" encoding="UTF-8"?>
<!DOCTYPE svg PUBLIC "-//W3C//DTD SVG 1.1//EN" "http://www.w3.org/Graphics/SVG/1.1/DTD/svg11.dtd">
<svg xmlns="http://www.w3.org/2000/svg" version="1.1" width="90px" height="90px" style="shape-rendering:geometricPrecision; text-rendering:geometricPrecision; image-rendering:optimizeQuality; fill-rule:evenodd; clip-rule:evenodd" xmlns:xlink="http://www.w3.org/1999/xlink">
<g><path style="opacity:0.841" fill="#dddddd" d="M 22.5,5.5 C 24.1992,5.33982 25.8659,5.50649 27.5,6C 33.5,12 39.5,18 45.5,24C 42.1667,27.3333 38.8333,30.6667 35.5,34C 33.08,33.6284 31.08,32.2951 29.5,30C 31.5,28 33.5,26 35.5,24C 34.9747,23.3076 34.3081,22.8076 33.5,22.5C 32.084,24.1392 30.4174,24.9725 28.5,25C 26.981,23.6487 25.6477,22.1487 24.5,20.5C 27.9953,18.2454 28.162,15.912 25,13.5C 21.1667,17.3333 17.3333,21.1667 13.5,25C 18.3333,29.8333 23.1667,34.6667 28,39.5C 27.6284,41.92 26.2951,43.92 24,45.5C 17.0439,39.2192 10.8772,32.3858 5.5,25C 5.66667,24.1667 5.83333,23.3333 6,22.5C 11.7029,16.9647 17.2029,11.2981 22.5,5.5 Z"/></g>
<g><path style="opacity:0.911" fill="#dddddd" d="M 67.5,8.5 C 69.8568,8.33669 72.1902,8.50335 74.5,9C 82.4722,14.9242 82.4722,20.7575 74.5,26.5C 70.1667,22.8333 66.1667,18.8333 62.5,14.5C 64.1897,12.4807 65.8564,10.4807 67.5,8.5 Z"/></g>
<g><path style="opacity:0.949" fill="#dedede" d="M 55.5,20.5 C 60.0719,23.5633 64.2385,27.23 68,31.5C 68.6667,32.1667 68.6667,32.8333 68,33.5C 54.3333,47.1667 40.6667,60.8333 27,74.5C 22.1667,71 18,66.8333 14.5,62C 28.3686,48.2985 42.0352,34.4652 55.5,20.5 Z"/></g>
<g><path style="opacity:0.841" fill="#dddddd" d="M 64.5,43.5 C 71.7511,49.5806 78.0844,56.4139 83.5,64C 78.6245,70.8846 72.9579,77.218 66.5,83C 64.8333,83.6667 63.1667,83.6667 61.5,83C 55.5,77 49.5,71 43.5,65C 45.08,62.7049 47.08,61.3716 49.5,61C 54.3333,65.8333 59.1667,70.6667 64,75.5C 67.8333,71.6667 71.6667,67.8333 75.5,64C 74.646,62.9783 73.646,62.1449 72.5,61.5C 71.084,63.1392 69.4174,63.9725 67.5,64C 65.981,62.6487 64.6477,61.1487 63.5,59.5C 64.5,58.1667 65.5,56.8333 66.5,55.5C 66.1924,54.6919 65.6924,54.0253 65,53.5C 63,55.5 61,57.5 59,59.5C 56.7049,57.92 55.3716,55.92 55,53.5C 58.3709,50.2975 61.5375,46.9641 64.5,43.5 Z"/></g>
<g><path style="opacity:0.787" fill="#dedede" d="M 10.5,70.5 C 13.2971,72.795 15.9638,75.295 18.5,78C 15.3924,79.7585 12.059,80.5919 8.5,80.5C 8.54652,77.0314 9.21319,73.698 10.5,70.5 Z"/></g>
</svg>
